Coordinates
version=1
nRows=4
nColumns=63
inDegrees=yes

Units are S.I. units (second, meters, Newtons, ...)
If the header above contains a line with 'inDegrees', this indicates whether rotational values are in degrees (yes) or radians (no).

endheader
time	pelvis_tilt	pelvis_list	pelvis_rotation	pelvis_tx	pelvis_ty	pelvis_tz	hip_flexion_r	hip_adduction_r	hip_rotation_r	knee_angle_r	knee_angle_r_beta	ankle_angle_r	subtalar_angle_r	mtp_angle_r	hip_flexion_l	hip_adduction_l	hip_rotation_l	knee_angle_l	knee_angle_l_beta	ankle_angle_l	subtalar_angle_l	mtp_angle_l	L5_S1_Flex_Ext	L5_S1_Lat_Bending	L5_S1_axial_rotation	L4_L5_Flex_Ext	L4_L5_Lat_Bending	L4_L5_axial_rotation	L3_L4_Flex_Ext	L3_L4_Lat_Bending	L3_L4_axial_rotation	L2_L3_Flex_Ext	L2_L3_Lat_Bending	L2_L3_axial_rotation	L1_L2_Flex_Ext	L1_L2_Lat_Bending	L1_L2_axial_rotation	L1_T12_Flex_Ext	L1_T12_Lat_Bending	L1_T12_axial_rotation	Abs_r3	Abs_r2	Abs_r1	Abs_t1	Abs_t2	neck_flexion	neck_bending	neck_rotation	arm_flex_r	arm_add_r	arm_rot_r	elbow_flex_r	pro_sup_r	wrist_flex_r	wrist_dev_r	arm_flex_l	arm_add_l	arm_rot_l	elbow_flex_l	pro_sup_l	wrist_flex_l	wrist_dev_l
      1.91489362	     11.31523749	    -32.94570901	    116.26457819	      0.11472439	      0.37971177	      0.97064301	     57.08473270	     -2.18802234	    -16.86574855	     28.05158913	      0.48959259	     33.30047080	      3.88887582	      0.00000000	     60.53749356	     -0.44496631	      1.27548342	     28.84890221	      0.50350833	     24.99375643	     11.37077178	      0.00000000	     -0.69754250	     -0.42465254	      1.90472568	     -1.29540617	     -0.56478788	      2.02377103	     -1.14599257	     -1.03250019	      2.02377103	     -0.79722132	     -1.03250019	      1.66663497	     -0.64773796	     -0.86595146	      1.54758961	     -0.39857578	     -0.65778679	      1.42854426	     -4.98247631	     -4.80375448	     10.59351279	      0.00000000	      0.00000000	     -0.72065483	     11.46869920	    -15.86098091	     78.73961394	    -15.57466623	    162.85428468	      0.50887201	     23.58681117	    -36.97666909	     -6.30479161	     -2.29436331	    -19.16347444	     22.81205280	     74.30626636	     89.32012495	    -52.15528713	    -23.73903953
      1.93617021	     11.46184878	    -32.99129922	    116.33714758	      0.11444489	      0.37896070	      0.97068289	     57.16351996	     -2.17249665	    -17.08343354	     28.12307573	      0.49084027	     33.18618005	      3.68766180	      0.00000000	     60.58911884	     -0.51243350	      1.20305014	     28.71349023	      0.50114494	     25.19522786	     11.25121571	      0.00000000	     -0.72712749	     -0.41477251	      1.91733006	     -1.35034846	     -0.55164744	      2.03716319	     -1.19459776	     -1.00847789	      2.03716319	     -0.83103401	     -1.00847789	      1.67766380	     -0.67521059	     -0.84580411	      1.55783067	     -0.41548065	     -0.64248262	      1.43799755	     -5.19379896	     -4.69198962	     10.66361460	      0.00000000	      0.00000000	     -0.68776905	     11.59259617	    -15.89212108	     78.81810358	    -15.57145499	    162.84073433	      0.46610627	     23.63683283	    -37.11204094	     -6.27359082	     -2.56157791	    -19.14633507	     22.76407819	     74.24543107	     89.22944102	    -52.14157312	    -23.60717322
      1.95744681	     12.00731567	    -32.90462231	    116.83461427	      0.11428923	      0.37804370	      0.97052299	     57.22324206	     -1.92671166	    -17.08554094	     28.16151938	      0.49151124	     32.95277165	      2.60761883	      0.00000000	     60.71493070	     -0.60788146	      1.73742790	     28.60092257	      0.49918027	     25.35881285	     11.10329642	      0.00000000	     -0.74950080	     -0.37067874	      1.86868700	     -1.39189793	     -0.49300273	      1.98547994	     -1.23135486	     -0.90126829	      1.98547994	     -0.85660446	     -0.90126829	      1.63510113	     -0.69598644	     -0.75588809	      1.51830819	     -0.42826476	     -0.57418137	      1.40151525	     -5.35360925	     -4.19319205	     10.39307651	      0.00000000	      0.00000000	     -0.21850847	     11.74497532	    -15.98663547	     78.80961844	    -15.48941594	    162.30970308	      0.43948004	     24.01262429	    -39.05213599	     -6.41807561	     -3.33043142	    -18.89489035	     21.96524800	     74.66027014	     89.22837027	    -51.44068454	    -23.30503934
      1.97872340	     12.12921368	    -32.94592679	    116.83452702	      0.11480665	      0.37716878	      0.97021650	     57.26394193	     -1.79685008	    -17.27302204	     28.22921287	      0.49269271	     32.84312711	      2.29708311	      0.00000000	     60.72117036	     -0.73997561	      1.75195360	     28.45494723	      0.49663252	     25.59636730	     10.97190894	      0.00000000	     -0.77504904	     -0.37162995	      1.85728286	     -1.43934357	     -0.49426783	      1.97336304	     -1.27332807	     -0.90358106	      1.97336304	     -0.88580355	     -0.90358106	      1.62512250	     -0.71971054	     -0.75782779	      1.50904232	     -0.44286302	     -0.57565479	      1.39296214	     -5.53609779	     -4.20395231	     10.32965008	      0.00000000	      0.00000000	      0.10001205	     11.64625048	    -16.16331750	     78.91523976	    -15.26059990	    161.99591034	      0.38891718	     23.96850605	    -39.44225411	     -6.49654363	     -3.77829612	    -19.28165459	     21.95132085	     75.00891342	     89.20742005	    -51.21378431	    -23.37223444
